<svg fill="#000000" xmlns="http://www.w3.org/2000/svg" viewBox="0 0 30 30" width="30px" height="30px"><path d="M 14.984375 2.9863281 A 1.0001 1.0001 0 0 0 14 4 L 14 18 L 11 18 L 15 22 L 19 18 L 16 18 L 16 4 A 1.0001 1.0001 0 0 0 14.984375 2.9863281 z M 3.9902344 2.9902344 A 1.0001 1.0001 0 0 0 3.2929688 4.7070312 L 6.7070312 8.1210938 C 6.8947265 8.308789 7 8.5635338 7 8.828125 L 7 14 L 4 14 L 8 18 L 12 14 L 9 14 L 9 8.828125 C 9 8.0327162 8.6833984 7.269336 8.1210938 6.7070312 L 4.7070312 3.2929688 A 1.0001 1.0001 0 0 0 3.9902344 2.9902344 z M 25.980469 2.9902344 A 1.0001 1.0001 0 0 0 25.292969 3.2929688 L 21.878906 6.7070312 C 21.316602 7.269336 21 8.0327162 21 8.828125 L 21 14 L 18 14 L 22 18 L 26 14 L 23 14 L 23 8.828125 C 23 8.5635338 23.105273 8.308789 23.292969 8.1210938 L 26.707031 4.7070312 A 1.0001 1.0001 0 0 0 25.980469 2.9902344 z M 3.984375 20.986328 A 1.0001 1.0001 0 0 0 3 22 L 3 25 C 3 26.093063 3.9069372 27 5 27 L 25 27 C 26.093063 27 27 26.093063 27 25 L 27 22 A 1.0001 1.0001 0 1 0 25 22 L 25 25 L 5 25 L 5 22 A 1.0001 1.0001 0 0 0 3.984375 20.986328 z"/></svg>