<?xml version="1.0"?><svg fill="#000000" xmlns="http://www.w3.org/2000/svg" viewBox="0 0 30 30" width="30px" height="30px">    <path d="M 15 3 C 10.398 3 5.6113281 4.0371094 5.6113281 4.0371094 L 5.6074219 4.0410156 A 2 2 0 0 0 4 6 L 4 12 C 4 22.398 14.021484 26.744141 14.021484 26.744141 A 2 2 0 0 0 15 27 A 2 2 0 0 0 15.974609 26.744141 L 15.978516 26.744141 C 15.979516 26.744141 26 22.398 26 12 L 26 6 A 2 2 0 0 0 24.388672 4.0371094 C 24.388672 4.0371094 19.602 3 15 3 z M 15 7 C 16.655 7 18 8.345 18 10 L 18 12 L 19 12 C 19.552 12 20 12.448 20 13 L 20 18 C 20 18.552 19.552 19 19 19 L 11 19 C 10.448 19 10 18.552 10 18 L 10 13 C 10 12.448 10.448 12 11 12 L 12 12 L 12 10 C 12 8.345 13.345 7 15 7 z M 15 9 C 14.449 9 14 9.449 14 10 L 14 12 L 16 12 L 16 10 C 16 9.449 15.551 9 15 9 z"/></svg>