<?xml version="1.0"?><svg fill="#000000" xmlns="http://www.w3.org/2000/svg" viewBox="0 0 30 30" width="30px" height="30px">    <path d="M 7 4.5 C 5.619 4.5 4.5 5.619 4.5 7 C 4.5 8.381 5.619 9.5 7 9.5 C 8.381 9.5 9.5 8.381 9.5 7 C 9.5 5.619 8.381 4.5 7 4.5 z M 15 4.5 C 13.619 4.5 12.5 5.619 12.5 7 C 12.5 8.381 13.619 9.5 15 9.5 C 16.381 9.5 17.5 8.381 17.5 7 C 17.5 5.619 16.381 4.5 15 4.5 z M 23 4.5 C 21.619 4.5 20.5 5.619 20.5 7 C 20.5 8.381 21.619 9.5 23 9.5 C 24.381 9.5 25.5 8.381 25.5 7 C 25.5 5.619 24.381 4.5 23 4.5 z M 7 12.5 C 5.619 12.5 4.5 13.619 4.5 15 C 4.5 16.381 5.619 17.5 7 17.5 C 8.381 17.5 9.5 16.381 9.5 15 C 9.5 13.619 8.381 12.5 7 12.5 z M 15 12.5 C 13.619 12.5 12.5 13.619 12.5 15 C 12.5 16.381 13.619 17.5 15 17.5 C 16.381 17.5 17.5 16.381 17.5 15 C 17.5 13.619 16.381 12.5 15 12.5 z M 23 12.5 C 21.619 12.5 20.5 13.619 20.5 15 C 20.5 16.381 21.619 17.5 23 17.5 C 24.381 17.5 25.5 16.381 25.5 15 C 25.5 13.619 24.381 12.5 23 12.5 z M 7 20.5 C 5.619 20.5 4.5 21.619 4.5 23 C 4.5 24.381 5.619 25.5 7 25.5 C 8.381 25.5 9.5 24.381 9.5 23 C 9.5 21.619 8.381 20.5 7 20.5 z M 15 20.5 C 13.619 20.5 12.5 21.619 12.5 23 C 12.5 24.381 13.619 25.5 15 25.5 C 16.381 25.5 17.5 24.381 17.5 23 C 17.5 21.619 16.381 20.5 15 20.5 z M 23 20.5 C 21.619 20.5 20.5 21.619 20.5 23 C 20.5 24.381 21.619 25.5 23 25.5 C 24.381 25.5 25.5 24.381 25.5 23 C 25.5 21.619 24.381 20.5 23 20.5 z"/></svg>