<svg fill="#000000" xmlns="http://www.w3.org/2000/svg" viewBox="0 0 30 30" width="30px" height="30px"><path d="M 10 4 C 6.6983746 4 4 6.6983746 4 10 L 4 20 C 4 23.301625 6.6983746 26 10 26 L 20 26 C 23.301625 26 26 23.301625 26 20 L 26 10 C 26 6.6983746 23.301625 4 20 4 L 10 4 z M 10 6 L 20 6 C 22.220375 6 24 7.7796254 24 10 L 24 20 C 24 22.220375 22.220375 24 20 24 L 10 24 C 7.7796254 24 6 22.220375 6 20 L 6 10 C 6 7.7796254 7.7796254 6 10 6 z M 11 8 C 9.3550302 8 8 9.3550302 8 11 L 8 19 C 8 20.64497 9.3550302 22 11 22 L 19 22 C 20.64497 22 22 20.64497 22 19 L 22 11 C 22 9.3550302 20.64497 8 19 8 L 11 8 z M 11 10 L 19 10 C 19.56503 10 20 10.43497 20 11 L 20 19 C 20 19.56503 19.56503 20 19 20 L 11 20 C 10.43497 20 10 19.56503 10 19 L 10 11 C 10 10.43497 10.43497 10 11 10 z M 13 12 A 1.0001 1.0001 0 0 0 12 13 L 12 17 A 1.0001 1.0001 0 0 0 13 18 L 17 18 A 1.0001 1.0001 0 0 0 18 17 L 18 13 A 1.0001 1.0001 0 0 0 17 12 L 13 12 z M 14 14 L 16 14 L 16 16 L 14 16 L 14 14 z"/></svg>