<svg fill="#000000" xmlns="http://www.w3.org/2000/svg" viewBox="0 0 30 30" width="30px" height="30px"><path d="M 5 4 C 4.448 4 4 4.448 4 5 L 4 9 C 4 9.552 4.448 10 5 10 L 9 10 C 9.552 10 10 9.552 10 9 L 10 5 C 10 4.448 9.552 4 9 4 L 5 4 z M 7 6 C 7.552 6 8 6.448 8 7 C 8 7.552 7.552 8 7 8 C 6.448 8 6 7.552 6 7 C 6 6.448 6.448 6 7 6 z M 13 6 A 1.0001 1.0001 0 1 0 13 8 L 17 8 A 1.0001 1.0001 0 1 0 17 6 L 13 6 z M 21 6 A 1.0001 1.0001 0 1 0 21 8 L 25 8 A 1.0001 1.0001 0 1 0 25 6 L 21 6 z M 5 12 C 4.448 12 4 12.448 4 13 L 4 17 C 4 17.552 4.448 18 5 18 L 9 18 C 9.552 18 10 17.552 10 17 L 10 13 C 10 12.448 9.552 12 9 12 L 5 12 z M 7 14 L 8.5 16 L 5.5 16 L 7 14 z M 13 14 A 1.0001 1.0001 0 1 0 13 16 L 17 16 A 1.0001 1.0001 0 1 0 17 14 L 13 14 z M 21 14 A 1.0001 1.0001 0 1 0 21 16 L 25 16 A 1.0001 1.0001 0 1 0 25 14 L 21 14 z M 5 20 C 4.448 20 4 20.448 4 21 L 4 25 C 4 25.552 4.448 26 5 26 L 9 26 C 9.552 26 10 25.552 10 25 L 10 21 C 10 20.448 9.552 20 9 20 L 5 20 z M 6 22 L 8 22 L 8 24 L 6 24 L 6 22 z M 13 22 A 1.0001 1.0001 0 1 0 13 24 L 17 24 A 1.0001 1.0001 0 1 0 17 22 L 13 22 z M 21 22 A 1.0001 1.0001 0 1 0 21 24 L 25 24 A 1.0001 1.0001 0 1 0 25 22 L 21 22 z"/></svg>