<svg fill="#000000" xmlns="http://www.w3.org/2000/svg" viewBox="0 0 30 30" width="30px" height="30px"><path d="M 14.984375 3 A 1.50015 1.50015 0 0 0 13.607422 3.9433594 L 7.6074219 18.943359 A 1.50015 1.50015 0 0 0 7.5859375 19 L 7 19 A 1.0001 1.0001 0 1 0 7 21 L 8.6757812 21 A 1.50015 1.50015 0 0 0 9.296875 21 L 11 21 A 1.0001 1.0001 0 1 0 11 19 L 10.814453 19 L 12.015625 16 L 17.984375 16 L 19.185547 19 L 19 19 A 1.0001 1.0001 0 1 0 19 21 L 20.693359 21 A 1.50015 1.50015 0 0 0 21.322266 21 L 23 21 A 1.0001 1.0001 0 1 0 23 19 L 22.414062 19 A 1.50015 1.50015 0 0 0 22.392578 18.943359 L 16.392578 3.9433594 A 1.50015 1.50015 0 0 0 14.984375 3 z M 15 8.5390625 L 17.183594 14 L 12.816406 14 L 15 8.5390625 z M 6 24 L 6 27 L 24 27 L 24 24 L 6 24 z"/></svg>