<?xml version="1.0"?><svg fill="#b9c7d5" xmlns="http://www.w3.org/2000/svg" viewBox="0 0 30 30" width="30px" height="30px">    <path d="M 4 4 C 2.895 4 2 4.895 2 6 L 2 7 L 2 10 L 2 26 L 16.171875 26 L 18.171875 24 L 4 24 L 4 10 L 26 10 L 26 16.388672 C 26.457 16.144672 26.963094 16 27.496094 16 C 27.667094 16 27.835 16.022828 28 16.048828 L 28 9 L 28 6 C 28 4.895 27.105 4 26 4 L 4 4 z M 8 13 A 1 1 0 0 0 7 14 A 1 1 0 0 0 8 15 A 1 1 0 0 0 9 14 A 1 1 0 0 0 8 13 z M 12 13 C 11.448 13 11 13.448 11 14 C 11 14.552 11.448 15 12 15 L 21 15 C 21.552 15 22 14.552 22 14 C 22 13.448 21.552 13 21 13 L 12 13 z M 8 17 A 1 1 0 0 0 7 18 A 1 1 0 0 0 8 19 A 1 1 0 0 0 9 18 A 1 1 0 0 0 8 17 z M 12 17 C 11.448 17 11 17.448 11 18 C 11 18.552 11.448 19 12 19 L 21 19 C 21.552 19 22 18.552 22 18 C 22 17.448 21.552 17 21 17 L 12 17 z M 27.496094 18 C 27.189094 18 26.882937 18.117062 26.648438 18.351562 L 25.800781 19.199219 L 28.800781 22.199219 L 29.648438 21.351562 C 30.117438 20.882562 30.117438 20.123297 29.648438 19.654297 L 28.345703 18.351562 C 28.111203 18.117062 27.803094 18 27.496094 18 z M 24.599609 20.400391 L 19.800781 25.199219 L 20.699219 25.5 L 21 27 L 22.5 27.300781 L 22.800781 28.199219 L 27.599609 23.400391 L 24.599609 20.400391 z M 28 25.828125 L 27.828125 26 L 28 26 L 28 25.828125 z M 18.691406 27.691406 L 18.025391 29.580078 A 0.30000001 0.30000001 0 0 0 18.023438 29.583984 L 18.023438 29.585938 A 0.30000001 0.30000001 0 0 0 18 29.699219 A 0.30000001 0.30000001 0 0 0 18.300781 30 A 0.30000001 0.30000001 0 0 0 18.40625 29.980469 L 18.408203 29.980469 L 20.308594 29.308594 L 18.691406 27.691406 z"/></svg>
