<?xml version="1.0"?><svg fill="#b9c7d5" xmlns="http://www.w3.org/2000/svg" viewBox="0 0 30 30" width="30px" height="30px">    <path d="M 22 4 C 19.783 4 18.058141 5.1375781 17.869141 5.2675781 C 16.964141 5.8875781 16.736656 7.1143906 17.347656 8.0253906 C 17.958656 8.9363906 19.199234 9.179125 20.115234 8.578125 C 20.123234 8.571125 21.006 8 22 8 C 22.497 8 23 8.2496094 23 8.7246094 C 23 9.2716094 22.178156 9.4520938 21.910156 9.4960938 C 21.823156 9.5060937 21.753125 9.5144844 21.703125 9.5214844 C 20.635125 9.6824844 19.886672 10.661375 20.013672 11.734375 C 20.140672 12.807375 21.085828 13.580188 22.173828 13.492188 C 22.272828 13.483187 22.372656 13.472984 22.472656 13.458984 C 22.958656 13.421984 23.688688 13.498078 23.929688 13.705078 C 23.994688 13.761078 24 13.981828 24 14.048828 C 24 14.944828 22.02 15 22 15 C 21.505 15 20.973031 14.824297 20.582031 14.654297 C 20.849031 15.447297 21 16.312281 21 17.238281 C 21 17.806281 20.914578 18.348094 20.767578 18.871094 C 21.159578 18.946094 21.57 19 22 19 C 24.89 19 28 17.450828 28 14.048828 C 28 12.328828 27.231266 11.281172 26.572266 10.701172 C 26.843266 10.129172 27 9.4716094 27 8.7246094 C 27 6.0756094 24.804 4 22 4 z M 6.8339844 4.0078125 C 6.67725 4.0209844 6.5196875 4.0525156 6.3671875 4.1035156 L 3.3671875 5.1035156 C 2.3191875 5.4535156 1.7545156 6.5848125 2.1035156 7.6328125 C 2.4525156 8.6818125 3.5888125 9.2464375 4.6328125 8.8984375 L 5 8.7753906 L 5 15 L 4 15 C 2.896 15 2 15.896 2 17 C 2 18.104 2.896 19 4 19 L 8.3066406 19 C 7.0996406 17.856 6.6714375 16.043219 7.3984375 14.449219 C 7.7474375 13.683219 8.287 12.869391 9 12.150391 L 9 6 C 9 5.357 8.6919219 4.7529531 8.1699219 4.3769531 C 7.7791719 4.0957031 7.3041875 3.9682969 6.8339844 4.0078125 z M 14 12 C 11.406 12 9.77375 14.061297 9.21875 15.279297 C 8.76075 16.283297 9.2039844 17.469734 10.208984 17.927734 C 11.211984 18.384734 12.399422 17.9425 12.857422 16.9375 C 12.862422 16.9285 13.351 16 14 16 C 14.325 16 15.000906 15.999172 15.003906 17.201172 C 14.854906 18.047172 12.379781 20.168594 11.050781 21.308594 C 10.577781 21.713594 10.111875 22.114859 9.671875 22.505859 C 9.050875 23.057859 8.8358594 23.934938 9.1308594 24.710938 C 9.4268594 25.486937 10.17 26 11 26 L 18 26 C 19.104 26 20 25.104 20 24 C 20 22.896 19.104 22 18 22 L 16.277344 22 C 17.853344 20.46 19 18.914281 19 17.238281 C 19 14.153281 16.944 12 14 12 z"/></svg>
